<?xml version="1.0" standalone="no"?>
<!DOCTYPE svg PUBLIC "-//W3C//DTD SVG 20010904//EN"
 "http://www.w3.org/TR/2001/REC-SVG-20010904/DTD/svg10.dtd">
<svg version="1.0" xmlns="http://www.w3.org/2000/svg"
 width="981.000000pt" height="980.000000pt" viewBox="0 0 981.000000 980.000000"
 preserveAspectRatio="xMidYMid meet">

<g transform="translate(0.000000,980.000000) scale(0.100000,-0.100000)"
fill="#000000" stroke="none">
<path d="M4585 9789 c-1397 -97 -2656 -762 -3529 -1864 -506 -639 -857 -1441
-985 -2250 -44 -280 -55 -427 -55 -765 -1 -331 6 -443 45 -715 130 -916 521
-1774 1136 -2491 115 -136 415 -433 548 -545 1077 -906 2466 -1305 3860 -1108
1574 222 2948 1207 3675 2634 692 1359 705 2990 35 4360 -255 522 -562 945
-991 1365 -836 819 -1932 1305 -3109 1380 -182 11 -454 11 -630 -1z m913
-1630 c270 -30 432 -150 502 -374 28 -88 38 -272 21 -370 -56 -319 -307 -564
-656 -641 -121 -26 -353 -24 -467 4 -229 56 -376 193 -423 394 -20 84 -19 283
1 368 20 88 92 232 153 306 149 183 386 294 676 317 83 7 98 7 193 -4z m-5
-2237 c185 -82 236 -373 141 -812 -9 -41 -124 -484 -256 -985 -260 -984 -278
-1059 -278 -1151 0 -146 40 -169 202 -118 159 50 383 168 557 293 l84 60 94
-124 c51 -69 93 -128 93 -133 0 -13 -257 -245 -388 -350 -325 -260 -699 -482
-1038 -615 -424 -168 -703 -190 -875 -71 -54 37 -113 129 -135 211 -26 93 -26
394 0 533 9 52 125 540 257 1085 260 1071 273 1139 228 1168 -19 12 -34 14
-69 7 -151 -30 -528 -196 -716 -315 l-50 -32 -82 134 c-45 73 -82 137 -82 142
0 18 324 263 525 398 259 172 679 401 930 505 408 170 719 232 858 170z"/>
</g>
</svg>
