<?xml version="1.0" standalone="no"?>
<!DOCTYPE svg PUBLIC "-//W3C//DTD SVG 20010904//EN"
 "http://www.w3.org/TR/2001/REC-SVG-20010904/DTD/svg10.dtd">
<svg version="1.0" xmlns="http://www.w3.org/2000/svg"
 width="512.000000pt" height="512.000000pt" viewBox="0 0 512.000000 512.000000"
 preserveAspectRatio="xMidYMid meet">

<g transform="translate(0.000000,512.000000) scale(0.100000,-0.100000)"
fill="#000000" stroke="none">
<path d="M2521 4779 c-14 -5 -56 -38 -95 -73 -244 -217 -483 -346 -795 -432
-212 -58 -370 -77 -641 -76 -256 0 -266 -1 -294 -57 -21 -39 -40 -618 -32
-931 21 -786 110 -1271 299 -1635 115 -222 380 -501 710 -747 233 -174 531
-356 732 -447 146 -67 172 -65 351 22 520 256 1023 645 1291 1000 261 348 389
910 409 1805 8 345 -10 892 -31 932 -30 57 -53 63 -214 56 -572 -27 -1115 151
-1491 490 -109 98 -145 115 -199 93z m129 -349 c375 -299 848 -461 1390 -476
l165 -4 6 -133 c10 -209 10 -695 -1 -892 -34 -624 -137 -1057 -313 -1320 -161
-240 -480 -526 -860 -772 -127 -82 -311 -187 -405 -230 l-72 -34 -111 56
c-353 178 -733 449 -995 710 -195 195 -281 320 -359 524 -134 351 -197 860
-194 1561 1 162 4 348 8 412 l6 118 165 4 c380 11 689 82 1000 232 141 68 312
177 415 263 33 28 62 51 64 51 2 0 43 -31 91 -70z"/>
<path d="M2499 3300 c-133 -16 -263 -111 -325 -234 -118 -239 -11 -510 239
-605 l27 -11 0 -273 c0 -269 0 -275 23 -308 14 -21 37 -39 60 -46 51 -17 104
1 134 46 23 33 23 39 23 306 l0 272 73 36 c212 105 299 357 198 572 -80 171
-258 268 -452 245z m114 -241 c43 -11 101 -59 122 -98 61 -118 -12 -261 -146
-286 -99 -18 -204 60 -224 166 -15 82 47 185 130 214 49 17 69 18 118 4z"/>
</g>
</svg>
